<?xml version="1.0" encoding="utf-8"?>
<!-- Generator: Adobe Illustrator 21.0.0, SVG Export Plug-In . SVG Version: 6.00 Build 0)  -->
<svg version="1.1" id="Layer_1" xmlns="http://www.w3.org/2000/svg" xmlns:xlink="http://www.w3.org/1999/xlink" x="0px" y="0px"
	 viewBox="0 0 61 38" style="enable-background:new 0 0 61 38;" xml:space="preserve">
<style type="text/css">
	.st0{fill:#252525;}
</style>
<g transform="translate(0,-288.53332)">
	<path class="st0" d="M0.3,298.4v21.6h2.2v-21.6H0.3z"/>
	<path class="st0" d="M0.8,308.1v2.2h7v-2.2H0.8z"/>
	<path class="st0" d="M20.3,292.9c-0.8,0-1.5,0.4-1.8,1.1l-2.6,4.4h-7c-1.2,0-2.2,1-2.2,2.2v19.4c0,1.2,1,2.2,2.2,2.2h6
		c0.7,0,1.5,0.2,2,0.7l3,2.4c1,0.8,2.2,1.2,3.4,1.2h21.2c1.2,0,2.2-1,2.2-2.2v-6.5h3.5l0.9,3.5c0.1,0.5,0.6,0.8,1.1,0.8h5.4
		c1.8,0,3.2-1.5,3.2-3.2v-15.1c0-1.8-1.5-3.2-3.2-3.2h-5.4c-0.5,0-0.9,0.3-1.1,0.8l-0.9,3.5h-3.5v-4.3c0-1.2-1-2.2-2.2-2.2h-5.9
		l-2.6-4.4c-0.4-0.6-1.1-1.1-1.8-1.1h-3.7v2.2h3.7l2.9,4.9c0.2,0.3,0.5,0.5,0.9,0.5h6.5v5.4c0,0.6,0.5,1.1,1.1,1.1c0,0,0,0,0,0H51
		c0.5,0,0.9-0.3,1.1-0.8l0.9-3.5h4.6c0.6,0,1.1,0.5,1.1,1.1v15.1c0,0.6-0.5,1.1-1.1,1.1h-4.6l-0.9-3.5c-0.1-0.5-0.6-0.8-1.1-0.8
		h-5.4c-0.6,0-1.1,0.5-1.1,1.1c0,0,0,0,0,0v7.6H23.4c-0.7,0-1.5-0.2-2-0.7l-3-2.4c-1-0.8-2.1-1.2-3.4-1.2h-6v-19.4h7.6
		c0.4,0,0.7-0.2,0.9-0.5l2.9-4.9H24v-2.2L20.3,292.9L20.3,292.9z"/>
	<path class="st0" d="M24,296.2v2.2h6.5v-2.2H24z"/>
	<path class="st0" d="M18.6,288.6v2.2h17.3v-2.2H18.6z"/>
	<path class="st0" d="M26.2,289.2v8.6h2.2v-8.6H26.2z"/>
</g>
</svg>
