<?xml version="1.0" encoding="utf-8"?>
<!-- Generator: Adobe Illustrator 21.0.0, SVG Export Plug-In . SVG Version: 6.00 Build 0)  -->
<svg version="1.1" id="Layer_1" xmlns="http://www.w3.org/2000/svg" xmlns:xlink="http://www.w3.org/1999/xlink" x="0px" y="0px"
	 viewBox="0 0 42 36" style="enable-background:new 0 0 42 36;" xml:space="preserve">
<style type="text/css">
	.st0{fill:#252525;}
</style>
<g>
	<path class="st0" d="M41.6,4l-2-3.5C39.4,0.1,39,0,38.7,0.2c-0.6,0.3-14.1,7.8-16.8,15L21,14.7c-0.3-0.1-0.6-0.1-0.8,0.2l-1.8,2.2
		l-0.5-0.3c0,0,0,0-0.1,0c0,0-1.2-0.5-1.9-0.5H4.9c0,0-0.1,0-0.1,0c-0.2,0-3.8,0.6-4.5,4.3c0,0,0,0.1,0,0.1v13.2
		c-0.1,0.6,0.2,1.7,1.7,2c0.1,0,0.1,0,0.2,0h23.8c0,0,0.1,0,0.1,0c0.2,0,2.3-0.5,2.4-2.1l-0.3-10c0-0.2-0.1-0.4-0.3-0.5l-1.7-1.1
		l2-2.8c0.1-0.2,0.2-0.4,0.1-0.6c0-0.2-0.2-0.4-0.3-0.4l-1.1-0.6C27.3,16.9,33.9,7.4,41.2,5c0.2-0.1,0.4-0.2,0.4-0.4
		C41.7,4.4,41.7,4.2,41.6,4z M27,33.8c0,0.3-0.7,0.6-1.2,0.7H2.2c-0.5-0.2-0.6-0.4-0.6-0.5c0,0,0-0.1,0-0.1V20.7
		c0.5-2.5,3-3.1,3.3-3.1h10.8c0.2,0,0.9,0.2,1.3,0.4l7.6,5c0,0,0,0,0,0c0,0,0,0,0,0l2,1.3L27,33.8z M24.9,21.4l-5.5-3.6l1.4-1.6
		l5.6,3L24.9,21.4z M25.6,17.1C25.6,17.1,25.5,17.1,25.6,17.1l-2.4-1.2c2-5.9,13-12.6,15.6-14.1L40,4C32.3,7,25.8,16.6,25.6,17.1z"
		/>
	<path class="st0" d="M15.9,23.3H4.6c-0.4,0-0.7,0.3-0.7,0.7c0,0.4,0.3,0.7,0.7,0.7h11.3c0.4,0,0.7-0.3,0.7-0.7
		C16.6,23.6,16.3,23.3,15.9,23.3z"/>
</g>
</svg>
