<?xml version="1.0" encoding="utf-8"?>
<!-- Generator: Adobe Illustrator 21.0.0, SVG Export Plug-In . SVG Version: 6.00 Build 0)  -->
<svg version="1.1" id="Layer_1" xmlns="http://www.w3.org/2000/svg" xmlns:xlink="http://www.w3.org/1999/xlink" x="0px" y="0px"
	 viewBox="0 0 44 44" style="enable-background:new 0 0 44 44;" xml:space="preserve">
<style type="text/css">
	.st0{fill:#C00000;}
</style>
<g transform="translate(0,-952.36218)">
	<path class="st0" d="M13,995.9c0.3,0,0.4-0.2,0.5-0.3l0.7-2.3c0.5-0.2,1-0.4,1.4-0.6l2.1,1.2c0.2,0.1,0.4,0.1,0.6-0.1l2.1-2.1
		c0.1-0.1,0.2-0.4,0.1-0.6l-1.2-2.1c0.2-0.5,0.5-0.9,0.6-1.4l2.3-0.7c0.2-0.1,0.3-0.3,0.3-0.5v-2.9c0-0.2-0.1-0.4-0.3-0.5l-2.3-0.7
		c-0.2-0.5-0.4-1-0.6-1.4l1.2-2.1c0.1-0.2,0.1-0.4-0.1-0.6l-2.1-2.1c-0.1-0.1-0.4-0.2-0.6-0.1l-2.1,1.2c-0.5-0.2-0.9-0.4-1.4-0.6
		l-0.7-2.3c-0.1-0.2-0.3-0.4-0.5-0.4h-3c-0.2,0-0.4,0.2-0.5,0.4l-0.7,2.3c-0.5,0.2-1,0.4-1.4,0.6L5.3,976c-0.2-0.1-0.4-0.1-0.6,0.1
		l-2.1,2.1c-0.1,0.1-0.2,0.4-0.1,0.6l1.2,2.1c-0.2,0.5-0.4,0.9-0.6,1.4L0.8,983c-0.2,0.1-0.3,0.3-0.3,0.5v2.9c0,0.2,0.1,0.4,0.3,0.5
		l2.3,0.7c0.2,0.5,0.4,1,0.6,1.4l-1.1,2c-0.1,0.2-0.1,0.4,0.1,0.6l2.1,2.1c0.1,0.1,0.4,0.2,0.6,0.1l2.1-1.2c0.5,0.2,0.9,0.5,1.4,0.6
		l0.7,2.3c0.1,0.2,0.3,0.3,0.5,0.3H13V995.9z M12.6,994.9h-2.2l-0.6-2.2c0-0.2-0.2-0.3-0.3-0.3c-0.6-0.2-1.2-0.4-1.8-0.7
		c-0.1-0.1-0.3-0.1-0.5,0l-2,1.1l-1.6-1.6l1.1-2c0.1-0.1,0.1-0.3,0-0.5c-0.3-0.6-0.6-1.1-0.7-1.8c0-0.2-0.2-0.3-0.3-0.3L1.5,986
		v-2.2l2.2-0.6c0.2,0,0.3-0.2,0.3-0.3c0.2-0.6,0.4-1.2,0.7-1.8c0.1-0.1,0.1-0.3,0-0.5l-1.1-2l1.6-1.6l2,1.1c0.1,0.1,0.3,0.1,0.5,0
		c0.6-0.3,1.1-0.6,1.8-0.7c0.2,0,0.3-0.2,0.3-0.3l0.6-2.2h2.2l0.6,2.2c0,0.2,0.2,0.3,0.3,0.3c0.6,0.2,1.2,0.4,1.8,0.7
		c0.1,0.1,0.3,0.1,0.5,0l2-1.1l1.6,1.6l-1.1,2c-0.1,0.1-0.1,0.3,0,0.5c0.3,0.6,0.6,1.2,0.7,1.8c0,0.2,0.2,0.3,0.3,0.3l2.2,0.6v2.2
		l-2.2,0.6c-0.2,0-0.3,0.2-0.3,0.3c-0.2,0.6-0.4,1.2-0.7,1.8c-0.1,0.1-0.1,0.3,0,0.5l1.1,2l-1.6,1.6l-2-1.1c-0.1-0.1-0.3-0.1-0.5,0
		c-0.6,0.3-1.1,0.6-1.8,0.7c-0.2,0-0.3,0.2-0.3,0.3L12.6,994.9z M11.5,989.2c2.4,0,4.3-1.9,4.3-4.3s-1.9-4.3-4.3-4.3
		s-4.3,1.9-4.3,4.3S9.1,989.2,11.5,989.2z M11.5,988.2c-1.9,0-3.3-1.5-3.3-3.3s1.5-3.3,3.3-3.3s3.3,1.5,3.3,3.3
		S13.3,988.2,11.5,988.2z M32.3,978.7c0.3,0,0.4-0.2,0.5-0.3l0.8-2.8c0.6-0.2,1.2-0.4,1.8-0.7l2.6,1.4c0.2,0.1,0.4,0.1,0.6-0.1
		l2.4-2.4c0.1-0.1,0.2-0.4,0.1-0.6l-1.4-2.5c0.3-0.6,0.6-1.2,0.7-1.8l2.8-0.8c0.2-0.1,0.3-0.3,0.3-0.5V964c0-0.2-0.1-0.4-0.3-0.5
		l-2.8-0.8c-0.2-0.6-0.5-1.2-0.8-1.8l1.4-2.5c0.1-0.2,0.1-0.4-0.1-0.6l-2.4-2.4c-0.1-0.1-0.4-0.2-0.6-0.1l-2.6,1.4
		c-0.6-0.3-1.2-0.6-1.8-0.7l-0.8-2.8c-0.1-0.2-0.3-0.4-0.5-0.4h-3.5c-0.2,0-0.4,0.2-0.5,0.4l-0.8,2.8c-0.6,0.2-1.2,0.4-1.8,0.7
		l-2.6-1.4c-0.2-0.1-0.4-0.1-0.6,0.1l-2.4,2.4c-0.1,0.1-0.2,0.4-0.1,0.6l1.4,2.5c-0.3,0.6-0.6,1.2-0.8,1.8l-2.8,0.8
		c-0.2,0.1-0.3,0.3-0.3,0.5v3.5c0,0.2,0.1,0.4,0.3,0.5l2.8,0.8c0.2,0.6,0.4,1.2,0.7,1.8l-1.4,2.5c-0.1,0.2-0.1,0.4,0.1,0.6l2.4,2.4
		c0.1,0.1,0.4,0.2,0.6,0.1l2.6-1.4c0.6,0.3,1.2,0.5,1.8,0.7l0.8,2.8c0.1,0.2,0.3,0.3,0.5,0.3h3.7V978.7z M32,977.7h-2.8l-0.7-2.7
		c0-0.2-0.2-0.3-0.3-0.3c-0.7-0.2-1.5-0.5-2.1-0.9c-0.1-0.1-0.3-0.1-0.5,0l-2.4,1.3l-1.9-1.9l1.4-2.4c0.1-0.1,0.1-0.3,0-0.5
		c-0.4-0.7-0.7-1.4-0.9-2.1c0-0.2-0.2-0.3-0.3-0.3l-2.7-0.8v-2.8l2.7-0.8c0.2,0,0.3-0.2,0.3-0.3c0.2-0.7,0.5-1.4,0.9-2.1
		c0.1-0.1,0.1-0.3,0-0.5l-1.3-2.4l1.9-1.9l2.4,1.3c0.1,0.1,0.3,0.1,0.5,0c0.7-0.4,1.4-0.7,2.1-0.9c0.2,0,0.3-0.2,0.3-0.3l0.8-2.7H32
		l0.8,2.7c0,0.2,0.2,0.3,0.3,0.3c0.7,0.2,1.5,0.5,2.1,0.9c0.1,0.1,0.3,0.1,0.5,0l2.4-1.3l1.9,1.9l-1.3,2.4c-0.1,0.1-0.1,0.3,0,0.5
		c0.4,0.7,0.7,1.4,0.9,2.1c0,0.2,0.2,0.3,0.3,0.3l2.7,0.8v2.8l-2.7,0.8c-0.2,0-0.3,0.2-0.3,0.3c-0.2,0.7-0.5,1.4-0.9,2.1
		c-0.1,0.1-0.1,0.3,0,0.5l1.4,2.4l-1.9,1.9l-2.4-1.3c-0.1-0.1-0.3-0.1-0.5,0c-0.7,0.4-1.4,0.7-2.1,0.9c-0.2,0-0.3,0.2-0.3,0.3
		L32,977.7L32,977.7z M30.6,971c2.9,0,5.3-2.4,5.3-5.3c0-2.9-2.4-5.3-5.3-5.3s-5.3,2.4-5.3,5.3C25.3,968.7,27.7,971,30.6,971z
		 M30.6,970.1c-2.4,0-4.3-1.9-4.3-4.3c0-2.4,1.9-4.3,4.3-4.3s4.3,1.9,4.3,4.3C34.9,968.1,33,970.1,30.6,970.1z"/>
</g>
</svg>
