<?xml version="1.0" encoding="utf-8"?>
<!-- Generator: Adobe Illustrator 21.0.0, SVG Export Plug-In . SVG Version: 6.00 Build 0)  -->
<svg version="1.1" id="Layer_1" xmlns="http://www.w3.org/2000/svg" xmlns:xlink="http://www.w3.org/1999/xlink" x="0px" y="0px"
	 viewBox="0 0 37.5 40" style="enable-background:new 0 0 37.5 40;" xml:space="preserve">
<style type="text/css">
	.st0{fill:#C00000;}
</style>
<path class="st0" d="M37.4,16.5c-0.2-1.5-1.6-2.6-3.3-2.8c-0.4-3.7-1.7-6.8-4-9c-4.5-4.4-10.9-4.2-11.3-4.2S12.1,0.4,7.5,4.7
	C5.2,7,4,10,3.5,13.7c-1.7,0.2-3,1.3-3.3,2.8v6.9C0.5,25,2,26.3,4,26.3c2.1,0,3.9-1.5,3.9-3.3v-6c0-1.5-1.2-2.8-2.9-3.2
	c0.4-3.3,1.5-6,3.5-8C12.4,2.2,17.9,2,18.7,2c0.1,0,0.1,0,0.1,0l0,0c0.1,0,6.1-0.1,10.2,3.8c2,2,3.2,4.7,3.5,8
	c-1.6,0.4-2.9,1.6-2.9,3.2v6c0,1.6,1.3,2.9,3.1,3.2c-0.1,1.7-1,6.8-6.1,9c-0.5-1.2-1.6-2-2.9-2h-3.1c-1.7,0-3.2,1.4-3.2,3.1
	c0,1.7,1.4,3.2,3.2,3.2h3.1c1.5,0,2.8-1.1,3-2.6c6.3-2.4,7.3-8.7,7.5-10.7c1.6-0.3,2.8-1.4,3.1-2.8L37.4,16.5z M6.4,17v6
	c0,1-1.1,1.8-2.4,1.8S1.6,24,1.6,23v-6c0-1,1.1-1.8,2.4-1.8C5.4,15.2,6.4,16,6.4,17z M23.8,38h-3.1c-0.9,0-1.6-0.7-1.6-1.6
	c0-0.9,0.7-1.6,1.6-1.6h3.1c0.9,0,1.6,0.7,1.6,1.6C25.4,37.2,24.7,38,23.8,38z M35.9,23c0,1-1.1,1.8-2.4,1.8c-1.3,0-2.4-0.8-2.4-1.8
	v-6c0-1,1.1-1.8,2.4-1.8s2.4,0.8,2.4,1.8V23z"/>
</svg>
