<?xml version="1.0" encoding="utf-8"?>
<!-- Generator: Adobe Illustrator 21.0.0, SVG Export Plug-In . SVG Version: 6.00 Build 0)  -->
<svg version="1.1" id="Layer_1" xmlns="http://www.w3.org/2000/svg" xmlns:xlink="http://www.w3.org/1999/xlink" x="0px" y="0px"
	 viewBox="0 0 147 96" style="enable-background:new 0 0 147 96;" xml:space="preserve">
<style type="text/css">
	.st0{fill:#FFFFFF;}
</style>
<path class="st0" d="M71.9,0c1.2,0,2.3,0,3.5,0c0.2,0,0.4,0.1,0.6,0.1c1,0,2.1,0.1,3.1,0.1c4.2,0.2,8.5,0.6,12.6,1.3
	c6.6,1.1,13.1,2.8,19.4,5.2c7.4,2.9,14.4,6.7,20.5,11.8c4.7,3.9,8.6,8.4,11.5,13.8c2.1,4,3.5,8.3,3.9,12.8c0.1,0.7,0.1,1.4,0.2,2
	c0,0.5,0,1,0,1.5c0,0.2-0.1,0.4-0.1,0.7c-0.1,3.3-0.8,6.5-1.9,9.6c-1.9,5.3-5,10-8.9,14.1c-4.5,4.8-9.8,8.6-15.5,11.7
	c-9.5,5.2-19.6,8.2-30.3,9.9c-4.8,0.8-9.6,1.2-14.4,1.2c-0.2,0-0.5,0-0.7,0.1c-1.2,0-2.3,0-3.5,0c-0.2,0-0.4-0.1-0.6-0.1
	c-1,0-2.1-0.1-3.1-0.1c-4.2-0.2-8.5-0.6-12.6-1.3c-6.6-1.1-13.1-2.8-19.4-5.2c-8-3.1-15.4-7.2-21.9-12.9c-4.1-3.7-7.6-7.8-10.2-12.7
	c-2.1-4-3.5-8.3-3.8-12.8c-0.1-0.7-0.1-1.4-0.2-2c0-0.5,0-1,0-1.5c0-0.2,0.1-0.4,0.1-0.7C0.3,43.3,1,40.1,2.1,37
	c1.9-5.3,5-10,8.9-14.1c4.5-4.8,9.8-8.6,15.5-11.7C36,6,46.2,3,56.8,1.3c4.8-0.8,9.6-1.2,14.4-1.2C71.5,0.1,71.7,0,71.9,0z
	 M128.3,23.5c-0.1,0-0.1,0.1-0.2,0.1c0,0.1,0,0.3,0,0.4c0.1,1.1,0,2.3-0.3,3.4c-0.7,2.8-2.2,5-4.2,7c-2.6,2.7-5.7,4.7-9.1,6.3
	c-7.1,3.5-14.7,5.5-22.5,6.8c-0.4,0.1-0.4,0.2-0.4,0.5c0.1,3.6,0,7.1-0.3,10.6c-0.3,3.8-0.9,7.6-1.7,11.4c-1,4.4-2.3,8.7-4.3,12.8
	c-1.5,3-3.2,5.7-5.8,7.9c0,0,0,0.1,0,0.1c0.3,0,0.5,0,0.8,0c2.3-0.3,4.7-0.5,7-0.8c5.5-0.8,10.8-2.1,15.9-4.1
	c7.7-2.8,14.8-6.8,20.9-12.3c4.2-3.8,7.6-8.2,10-13.3c2.8-5.9,3.7-12.1,2.8-18.6c-0.7-4.9-2.5-9.4-5.3-13.6
	C130.5,26.5,129.4,25,128.3,23.5z M18.5,24.4c-0.1,0.1-0.2,0.2-0.3,0.3c-1.9,2.4-3.6,5-4.9,7.8c-2.8,6.1-3.8,12.6-2.7,19.3
	c0.9,5.2,2.9,9.8,5.9,14.1c4.2,6,9.6,10.7,15.8,14.4c10.4,6.2,21.7,9.4,33.7,10.4c0.5,0,1.1,0.1,1.4,0.1c-0.4-0.5-0.9-1.1-1.4-1.7
	c-2.2-2.4-3.8-5.2-5.1-8.2c-3.4-7.9-4.8-16.2-5.3-24.7c-0.2-2.7-0.1-5.5-0.2-8.2c0-0.3-0.1-0.4-0.4-0.5c-3.1-0.6-6.3-1.2-9.3-1.9
	c-5.4-1.3-10.6-3.2-15.4-5.9c-3.2-1.7-6.1-3.8-8.4-6.6c-1.6-1.9-2.9-4.1-3.3-6.7C18.5,25.8,18.5,25.1,18.5,24.4z M56.5,35.3
	c0.1-0.2,0.1-0.4,0.1-0.6c0.6-3.6,1.3-7.1,2.4-10.5c1.2-3.8,2.7-7.5,5-10.8c1.4-2,3-3.9,5.1-5.1c1.7-1,3.4-1.5,5.4-1.2
	c2.3,0.3,4.1,1.5,5.8,3c2.1,2,3.6,4.3,4.8,6.9c2.8,5.6,4.3,11.6,5.3,17.8c0.1,0.3,0.1,0.5,0.5,0.4c2.8-0.6,5.6-1.1,8.4-1.9
	c3.8-1,7.6-2.4,11-4.5c1.8-1.1,3.4-2.4,4.6-4.2c1.6-2.3,1.6-4.8,0-7.2c-1.1-1.6-2.5-2.8-4.1-3.9c-3.1-2-6.5-3.3-10-4.4
	C93,6.9,85,6,76.9,5.7c-5.6-0.2-11.3,0-16.9,0.7C55.6,6.9,51.2,7.7,46.9,9c-3.7,1.1-7.3,2.4-10.6,4.4c-1.8,1.1-3.4,2.4-4.6,4.2
	c-1.6,2.3-1.6,4.8,0,7.1c0.4,0.6,0.9,1.2,1.5,1.8c2.1,2,4.6,3.4,7.2,4.5c4.4,1.9,9.1,3.1,13.8,4C55,35.1,55.8,35.2,56.5,35.3z
	 M84.4,48.5c-7.3,0.6-14.5,0.7-21.7,0c0,0.2,0,0.3,0,0.4c0.1,4.3,0.5,8.5,1.4,12.7c0.7,3.2,1.6,6.4,3.2,9.3c0.8,1.4,1.7,2.8,2.9,3.8
	c2.1,1.8,4.4,1.9,6.6,0.1c0.6-0.5,1.1-1.1,1.6-1.7c1.6-2.1,2.6-4.5,3.4-6.9c1.8-5.6,2.5-11.4,2.7-17.3
	C84.4,48.8,84.4,48.6,84.4,48.5z M83.6,36.1c-0.2-1-0.3-1.9-0.5-2.8c-0.7-3.1-1.6-6.2-3-9.1c-0.8-1.6-1.7-3-3.1-4.2
	c-2.1-1.9-4.5-1.9-6.7-0.1c-1.4,1.2-2.4,2.8-3.2,4.4c-1.4,2.8-2.3,5.7-2.9,8.8c-0.2,1-0.4,1.9-0.6,3C70.2,36.7,76.8,36.7,83.6,36.1z
	"/>
</svg>
