<?xml version="1.0" encoding="utf-8"?>
<!-- Generator: Adobe Illustrator 21.0.0, SVG Export Plug-In . SVG Version: 6.00 Build 0)  -->
<svg version="1.1" id="Layer_1" xmlns="http://www.w3.org/2000/svg" xmlns:xlink="http://www.w3.org/1999/xlink" x="0px" y="0px"
	 viewBox="0 0 49 26" style="enable-background:new 0 0 49 26;" xml:space="preserve">
<style type="text/css">
	.st0{fill:#252525;}
</style>
<g>
	<path class="st0" d="M24.5,0.5c-13.2,0-24,10.8-24,24c0,0.6,0.4,1,1,1h46c0.6,0,1-0.4,1-1C48.5,11.3,37.7,0.5,24.5,0.5z M19.8,23.5
		c0.5-2.2,2.4-3.8,4.7-3.8s4.2,1.6,4.7,3.8H19.8z M31.2,23.5c-0.5-3.3-3.3-5.8-6.7-5.8c-0.3,0-0.6,0-0.9,0.1L21,10.7
		c-0.2-0.5-0.8-0.8-1.3-0.6c-0.5,0.2-0.8,0.8-0.6,1.3l2.6,7c-2,0.9-3.5,2.9-3.9,5.2H2.5c0.5-11.7,10.2-21,22-21s21.5,9.3,22,21
		L31.2,23.5L31.2,23.5z"/>
	<path class="st0" d="M24.5,4.7c-0.6,0-1,0.4-1,1v1.9c0,0.6,0.4,1,1,1s1-0.4,1-1V5.7C25.5,5.2,25.1,4.7,24.5,4.7z"/>
	<path class="st0" d="M15.2,8c-0.3-0.5-0.9-0.6-1.4-0.4c-0.5,0.3-0.6,0.9-0.4,1.4l1,1.7c0.2,0.3,0.5,0.5,0.9,0.5
		c0.2,0,0.3,0,0.5-0.1c0.5-0.3,0.6-0.9,0.4-1.4L15.2,8z"/>
	<path class="st0" d="M9.1,15.9L7.5,15c-0.5-0.3-1.1-0.1-1.4,0.4S6,16.5,6.5,16.8l1.7,1c0.2,0.1,0.3,0.1,0.5,0.1
		c0.3,0,0.7-0.2,0.9-0.5C9.8,16.8,9.6,16.2,9.1,15.9z"/>
	<path class="st0" d="M39.5,17.3c0.2,0.3,0.5,0.5,0.9,0.5c0.2,0,0.3,0,0.5-0.1l1.7-1c0.5-0.3,0.6-0.9,0.4-1.4
		c-0.3-0.5-0.9-0.6-1.4-0.4l-1.7,1C39.4,16.2,39.2,16.8,39.5,17.3z"/>
	<path class="st0" d="M35.1,7.6C34.6,7.3,34,7.5,33.7,8l-1,1.7c-0.3,0.5-0.1,1.1,0.4,1.4c0.2,0.1,0.3,0.1,0.5,0.1
		c0.3,0,0.7-0.2,0.9-0.5l1-1.7C35.8,8.5,35.6,7.9,35.1,7.6z"/>
</g>
</svg>
