<?xml version="1.0" encoding="utf-8"?>
<!-- Generator: Adobe Illustrator 21.0.0, SVG Export Plug-In . SVG Version: 6.00 Build 0)  -->
<svg version="1.1" id="Layer_1" xmlns="http://www.w3.org/2000/svg" xmlns:xlink="http://www.w3.org/1999/xlink" x="0px" y="0px"
	 viewBox="0 0 42 32" style="enable-background:new 0 0 42 32;" xml:space="preserve">
<style type="text/css">
	.st0{fill:#BEC0C4;}
</style>
<g transform="translate(0,-952.36218)">
	<path class="st0" d="M25.8,983.6c0.3-0.1,0.5-0.3,0.5-0.6v-14.6v-14.6c0-0.3-0.3-0.6-0.6-0.6c-0.1,0-0.1,0-0.2,0L10.4,959H1.1
		c-0.3,0-0.6,0.3-0.6,0.6v17.6c0,0.3,0.3,0.6,0.6,0.6h9.3l15.1,5.8C25.6,983.6,25.7,983.6,25.8,983.6L25.8,983.6z M25.1,982.2
		L11,976.8V960l14.1-5.4v13.8V982.2z M35.1,980.7c0.1,0,0.2,0,0.3-0.1c3.6-2.4,6.1-5.6,6.1-12.2c0-6.6-2.5-9.8-6.1-12.2
		c-0.3-0.2-0.6-0.1-0.8,0.2c-0.2,0.3-0.1,0.6,0.2,0.8c3.4,2.3,5.6,4.9,5.6,11.2c0,6.3-2.2,9-5.6,11.2c-0.3,0.2-0.4,0.5-0.2,0.8
		C34.7,980.6,34.9,980.7,35.1,980.7L35.1,980.7z M29.8,977.7c0.1,0,0.2,0,0.3-0.1c1.8-0.9,3.4-1.9,4.5-3.4c1.1-1.5,1.7-3.4,1.7-5.9
		c0-2.5-0.6-4.4-1.7-5.9c-1.1-1.5-2.7-2.5-4.5-3.4c-0.3-0.2-0.6-0.1-0.8,0.2c-0.2,0.3-0.1,0.6,0.2,0.8c0,0,0.1,0,0.1,0.1
		c1.7,0.9,3.1,1.8,4,3.1c0.9,1.3,1.5,2.9,1.5,5.2c0,2.3-0.6,4-1.5,5.2c-0.9,1.3-2.3,2.2-4,3.1c-0.3,0.1-0.4,0.5-0.3,0.8
		C29.3,977.6,29.6,977.7,29.8,977.7z M9.9,976.6H1.7v-16.4h8.2V976.6z"/>
</g>
</svg>
