<?xml version="1.0" encoding="utf-8"?>
<!-- Generator: Adobe Illustrator 21.0.0, SVG Export Plug-In . SVG Version: 6.00 Build 0)  -->
<svg version="1.1" id="Layer_1" xmlns="http://www.w3.org/2000/svg" xmlns:xlink="http://www.w3.org/1999/xlink" x="0px" y="0px"
	 viewBox="0 0 39 39" style="enable-background:new 0 0 39 39;" xml:space="preserve">
<style type="text/css">
	.st0{fill:#252525;stroke:#252525;stroke-width:0.5;stroke-miterlimit:10;}
</style>
<g>
	<circle class="st0" cx="19.5" cy="19.3" r="1.9"/>
	<g>
		<path class="st0" d="M19.3,0.7c-1.5,0-3.1,0.2-4.6,0.6C4.8,4-1.1,14.3,1.5,24.4c2.7,10,12.9,16,22.8,13.3c9.9-2.7,15.8-13,13.1-23
			C35.2,6.2,27.6,0.6,19.3,0.7L19.3,0.7z M19.3,1.6c7.9-0.1,15.2,5.2,17.3,13.3c2.5,9.6-3.1,19.4-12.5,21.9
			c-9.5,2.6-19.2-3.1-21.7-12.7C-0.2,14.6,5.5,4.7,14.9,2.2C16.4,1.8,17.9,1.6,19.3,1.6L19.3,1.6z M19.2,4.9
			C14.3,5,9.6,7.6,6.9,12.2c-4,7-1.6,16,5.3,20c6.9,4,15.8,1.6,19.8-5.4c4-7,1.6-16-5.3-20C24.4,5.4,21.8,4.8,19.2,4.9L19.2,4.9z
			 M19.2,5.7c2.4,0,4.9,0.5,7.1,1.9c6.5,3.8,8.8,12.2,5,18.8c-3.8,6.6-12.1,8.9-18.6,5.1c-6.5-3.8-8.7-12.2-5-18.8
			C10.2,8.3,14.6,5.8,19.2,5.7L19.2,5.7z M19.2,7.5c-1,0-2.1,0.2-3.1,0.5c-0.2,0-0.3,0.3-0.3,0.4c0.1,1.9,0.5,3.6,1.1,4.9
			c0.6,1.3,1.5,2.1,2.5,2.1c1.1,0,1.9-0.9,2.5-2.1c0.6-1.3,1-3,1.1-4.9c0-0.2-0.1-0.4-0.3-0.4C21.7,7.7,20.4,7.5,19.2,7.5L19.2,7.5z
			 M19.3,8.4c1,0,2,0.1,3,0.4c-0.1,1.7-0.5,3.2-1,4.2c-0.5,1.1-1.2,1.6-1.7,1.6s-1.2-0.5-1.8-1.6c-0.5-1-0.8-2.5-1-4.2
			C17.6,8.6,18.4,8.5,19.3,8.4L19.3,8.4z M11.6,10.7c-0.1,0-0.2,0-0.2,0.1c-0.9,0.8-1.6,1.8-2.2,2.9c-0.5,0.9-0.9,1.9-1.1,2.9
			c0,0.2,0.1,0.4,0.2,0.5c1.7,0.9,3.3,1.4,4.7,1.5c1.4,0.1,2.6-0.2,3.1-1.1c0.5-0.9,0.2-2.1-0.6-3.3c-0.8-1.2-2-2.4-3.6-3.4
			C11.8,10.7,11.7,10.7,11.6,10.7L11.6,10.7z M27.3,10.7c-0.1,0-0.1,0-0.2,0.1c-1.6,1.1-2.8,2.2-3.6,3.4c-0.8,1.2-1.1,2.4-0.6,3.3
			c0.5,0.9,1.7,1.2,3.1,1.1c1.4-0.1,3-0.6,4.7-1.5c0.2-0.1,0.3-0.3,0.2-0.5c-0.2-1-0.6-2-1.1-2.9c-0.6-1.1-1.3-2-2.2-2.9
			C27.6,10.8,27.4,10.7,27.3,10.7L27.3,10.7z M11.7,11.8c1.4,0.9,2.5,2,3.1,2.9c0.7,1,0.8,1.9,0.5,2.4c-0.3,0.5-1.1,0.8-2.3,0.7
			c-1.1-0.1-2.6-0.5-4-1.2c0.2-0.8,0.5-1.6,0.9-2.4C10.4,13.3,11,12.5,11.7,11.8L11.7,11.8z M27.3,11.8c0.7,0.7,1.3,1.5,1.8,2.4
			c0.4,0.8,0.7,1.5,0.9,2.4c-1.5,0.7-2.9,1.2-4.1,1.2c-1.2,0.1-2-0.2-2.3-0.7c-0.3-0.5-0.1-1.3,0.5-2.4
			C24.9,13.8,25.9,12.7,27.3,11.8L27.3,11.8z M13.5,20.3c-0.2,0-0.3,0-0.5,0c-1.4,0.1-3,0.6-4.7,1.5C8.1,21.9,8,22.1,8,22.3
			c0.3,1.2,0.7,2.3,1.4,3.4c0.5,0.9,1.2,1.7,2,2.4c0.1,0.1,0.4,0.2,0.5,0c1.6-1.1,2.8-2.2,3.6-3.4c0.8-1.2,1.1-2.4,0.6-3.3
			C15.6,20.7,14.6,20.3,13.5,20.3L13.5,20.3z M25.5,20.3c-1.2,0-2.1,0.3-2.6,1.2c-0.5,0.9-0.2,2.1,0.6,3.3c0.8,1.2,2,2.4,3.6,3.4
			c0.2,0.1,0.4,0.1,0.6,0c0.7-0.7,1.4-1.5,2-2.4c0.6-1,1.1-2.2,1.4-3.4c0-0.2-0.1-0.4-0.2-0.5c-1.7-0.9-3.3-1.4-4.7-1.5
			C25.9,20.3,25.7,20.3,25.5,20.3L25.5,20.3z M13.5,21.2c1,0,1.6,0.3,1.8,0.7c0.3,0.5,0.2,1.3-0.5,2.4c-0.6,0.9-1.7,2-3.1,2.9
			c-0.6-0.6-1.1-1.2-1.6-2c-0.5-0.8-0.9-1.8-1.2-2.8c1.5-0.7,2.9-1.2,4.1-1.3C13.2,21.2,13.3,21.2,13.5,21.2L13.5,21.2z M25.5,21.2
			c0.1,0,0.3,0,0.4,0c1.1,0.1,2.6,0.5,4.1,1.3c-0.3,1-0.7,1.9-1.2,2.8c-0.4,0.7-1,1.4-1.6,2c-1.4-0.9-2.4-2-3.1-2.9
			c-0.7-1-0.8-1.9-0.5-2.4C23.9,21.5,24.6,21.2,25.5,21.2L25.5,21.2z M19.5,23.5c-1.1,0-1.9,0.9-2.5,2.2c-0.6,1.3-1,2.9-1.1,4.9
			c0,0.2,0.1,0.4,0.3,0.5c1,0.3,2,0.5,3.1,0.5c1.2,0,2.4-0.1,3.6-0.5c0.2,0,0.3-0.3,0.3-0.5c-0.1-1.9-0.5-3.6-1.1-4.9
			C21.4,24.4,20.6,23.5,19.5,23.5L19.5,23.5z M19.5,24.4c0.6,0,1.2,0.5,1.7,1.7c0.5,1,0.8,2.5,1,4.2c-1,0.3-2,0.4-3,0.4
			c-0.8,0-1.6-0.2-2.5-0.4c0.1-1.6,0.5-3.1,1-4.1C18.3,24.9,18.9,24.4,19.5,24.4L19.5,24.4z"/>
	</g>
</g>
</svg>
