<?xml version="1.0" encoding="utf-8"?>
<!-- Generator: Adobe Illustrator 21.0.0, SVG Export Plug-In . SVG Version: 6.00 Build 0)  -->
<svg version="1.1" id="Layer_1" xmlns="http://www.w3.org/2000/svg" xmlns:xlink="http://www.w3.org/1999/xlink" x="0px" y="0px"
	 viewBox="0 0 48 48" style="enable-background:new 0 0 48 48;" xml:space="preserve">
<style type="text/css">
	.st0{fill:none;stroke:#C00000;stroke-width:2;stroke-miterlimit:10;}
	.st1{fill:#C00000;}
</style>
<circle class="st0" cx="24" cy="24" r="21.5"/>
<g>
	<path class="st1" d="M24.5,26c-0.2,0-0.3,0-0.5,0c-7,0-12.8,6.1-14,14.3c3.8,3.2,8.7,5.2,14,5.2c0.2,0,0.3,0,0.5,0
		c5.2-0.1,9.9-2.1,13.5-5.2C36.9,32.3,31.2,26.3,24.5,26z"/>
	<path class="st1" d="M24,23.8c0.2,0,0.3,0,0.5,0c3.5-0.3,6.2-3.2,6.2-6.7c0-3.6-2.8-6.5-6.2-6.7c-0.2,0-0.3,0-0.5,0
		c-3.7,0-6.8,3-6.8,6.8C17.2,20.7,20.3,23.8,24,23.8z"/>
</g>
</svg>
