<?xml version="1.0" encoding="utf-8"?>
<!-- Generator: Adobe Illustrator 21.0.0, SVG Export Plug-In . SVG Version: 6.00 Build 0)  -->
<svg version="1.1" id="Layer_1" xmlns="http://www.w3.org/2000/svg" xmlns:xlink="http://www.w3.org/1999/xlink" x="0px" y="0px"
	 viewBox="0 0 42 32" style="enable-background:new 0 0 42 32;" xml:space="preserve">
<style type="text/css">
	.st0{fill:#C00000;}
</style>
<g transform="matrix( 1, 0, 0, 1, 0,0) ">
	<g>
		<g id="a">
			<path class="st0" d="M1.4,0.7L1.4,0.7L1.4,0.7 M14.8,1.1l5.4,5c0.2,0.2,0.4,0.3,0.7,0.3c0,0,0,0,0,0l19.8-0.1l0,24.6l-39.2,0
				l0-29.8H14.8 M15.1,0.1H1c-0.4,0-0.7,0.2-0.7,0.7v30.5c0,0.4,0.2,0.7,0.7,0.7H41c0.4,0,0.7-0.2,0.7-0.7V6c0-0.4-0.2-0.7-0.7-0.7
				L20.8,5.4L15.1,0.1L15.1,0.1z"/>
		</g>
	</g>
</g>
</svg>
